<svg id="Layer_1" enable-background="new 0 0 256 256" height="512" viewBox="0 0 256 256" width="512" xmlns="http://www.w3.org/2000/svg"><g><g><path d="m240.195 16.219h-177.75c-5.523 0-10 4.477-10 10v42.225h82.487c2.761 0 5 2.239 5 5v88.163h100.263c5.523 0 10-4.477 10-10v-125.388c0-5.523-4.477-10-10-10z" fill="#58595b"/><path d="m244.305 17.109c.567 1.255.89 2.643.89 4.11v125.388c0 5.523-4.477 10-10 10h-95.263v5h100.263c5.523 0 10-4.477 10-10v-125.388c0-4.057-2.419-7.541-5.89-9.11z" fill="#414042"/><path d="m139.932 186.61h41.051l-5.318-25.003h-35.733z" fill="#939598"/><path d="m169.808 181.61h-29.875v5h41.051l-5.317-25.003h-3.937l2.969 13.963c.661 3.11-1.711 6.04-4.891 6.04z" fill="#808285"/><path d="m202.636 186.61h-62.704v13.171h67.704v-8.171c0-2.761-2.239-5-5-5z" fill="#58595b"/><path d="m202.636 186.61v6.171c0 1.104-.895 2-2 2h-60.704v5h67.704v-8.171c0-2.761-2.239-5-5-5z" fill="#414042"/><path d="m232.671 28.743h-162.701c-2.761 0-5 2.239-5 5v34.7h69.963c2.761 0 5 2.239 5 5v66.693h92.739c2.761 0 5-2.239 5-5v-101.393c-.001-2.762-2.24-5-5.001-5z" fill="#f1f2f2"/><g><path d="m126.25 36.743h-.28c-1.104 0-2-.896-2-2s.896-2 2-2h.28c1.104 0 2 .896 2 2s-.896 2-2 2zm-8.28 0h-47c-1.104 0-2-.896-2-2s.896-2 2-2h47c1.104 0 2 .896 2 2s-.896 2-2 2z" fill="#fff"/></g><g><path d="m232.671 28.743h-5v96.394c0 2.761-2.239 5-5 5h-82.739v10h92.739c2.761 0 5-2.239 5-5v-101.394c0-2.762-2.239-5-5-5z" fill="#e6e7e8"/></g><g><path d="m232.671 28.743v101.394c0 2.761-2.239 5-5 5h-87.739v5h92.739c2.761 0 5-2.239 5-5v-101.394c0-2.762-2.239-5-5-5z" fill="#d1d3d4"/></g><g><path d="m220.555 42.258h-138.471c-1.105 0-2 .895-2 2v24.186h54.848c2.761 0 5 2.239 5 5v6.507h80.623c1.105 0 2-.896 2-2v-33.693c0-1.105-.895-2-2-2z" fill="#893add"/><path d="m168.879 87.37h-28.947v38.563h28.947c1.105 0 2-.895 2-2v-34.563c0-1.104-.896-2-2-2z" fill="#ffc91d"/><g><path d="m183.437 123.933v-34.563c0-1.105.895-2 2-2h35.118c1.105 0 2 .895 2 2v34.563c0 1.105-.895 2-2 2h-35.118c-1.104 0-2-.895-2-2z" fill="#ffc91d"/></g></g><g><circle cx="151.32" cy="150.477" fill="#939598" r="5.367"/></g></g><g><path d="m134.932 68.443h-85.542c-2.761 0-5 2.239-5 5v43.678h24.742c2.761 0 5 2.239 5 5v97.659h60.801c2.761 0 5-2.239 5-5v-141.337c-.001-2.761-2.239-5-5.001-5z" fill="#58595b"/><path d="m134.932 68.443v141.338c0 2.761-2.239 5-5 5h-55.8v5h60.801c2.761 0 5-2.239 5-5v-141.338c-.001-2.761-2.239-5-5.001-5z" fill="#414042"/><path d="m44.39 82.792v34.33h24.742c2.761 0 5 2.239 5 5v77.141h65.801v-116.471z" fill="#f1f2f2"/><path d="m134.932 82.792v106.471c0 2.761-2.239 5-5 5h-55.8v5h65.801v-116.471z" fill="#e6e7e8"/><g><path d="m85.606 150.136h-11.474v35.187h11.475c1.105 0 2-.895 2-2v-31.187c-.001-1.105-.896-2-2.001-2z" fill="#ffc91d"/><path d="m130.568 96.62h-76.813c-1.105 0-2 .895-2 2v18.502h17.377c2.761 0 5 2.239 5 5v21.986h56.436c1.105 0 2-.895 2-2v-43.488c0-1.105-.896-2-2-2z" fill="#893add"/><g><g><path d="m94.842 183.323v-31.187c0-1.105.895-2 2-2h31.852c1.105 0 2 .895 2 2v31.187c0 1.105-.895 2-2 2h-31.852c-1.104 0-2-.896-2-2z" fill="#ffc91d"/></g></g></g><g><path d="m103.758 77.324h-23.194c-.859 0-1.561-.703-1.561-1.561 0-.859.703-1.561 1.561-1.561h23.194c.859 0 1.561.703 1.561 1.561 0 .859-.702 1.561-1.561 1.561z" fill="#939598"/></g><g><circle cx="111.564" cy="75.763" fill="#939598" r="1.713"/></g><g><path d="m101.535 212.44h-18.748c-1.1 0-2-.9-2-2v-3.583c0-1.1.9-2 2-2h18.748c1.1 0 2 .9 2 2v3.583c0 1.1-.9 2-2 2z" fill="#939598"/></g></g><g><g><path d="m69.132 239.781h-58.327c-2.761 0-5-2.239-5-5v-112.659c0-2.761 2.239-5 5-5h58.327c2.761 0 5 2.239 5 5v112.659c0 2.762-2.239 5-5 5z" fill="#58595b"/></g><g><path d="m69.132 117.122v112.659c0 2.761-2.239 5-5 5h-58.327c0 2.761 2.239 5 5 5h58.327c2.761 0 5-2.239 5-5v-112.659c0-2.762-2.239-5-5-5z" fill="#414042"/></g><g><path d="m-7.232 141.788h94.4v68.327h-94.4z" fill="#f1f2f2" transform="matrix(0 1 -1 0 215.92 135.983)"/></g><g><path d="m69.132 128.751v84.4c0 2.761-2.239 5-5 5h-58.327v5h68.327v-94.4z" fill="#e6e7e8"/></g><g><path d="m16.114 165.48v-24.418c0-1.105.895-2 2-2h43.708c1.105 0 2 .895 2 2v24.418c0 1.105-.895 2-2 2h-43.708c-1.104 0-2-.896-2-2z" fill="#893add"/></g><g><path d="m16.114 210.842v-36.79c0-1.105.895-2 2-2h43.708c1.105 0 2 .895 2 2v36.79c0 1.105-.895 2-2 2h-43.708c-1.104 0-2-.896-2-2z" fill="#ffc91d"/></g><g><path d="m49.368 124.32h-18.799c-.696 0-1.265-.569-1.265-1.265 0-.696.569-1.265 1.265-1.265h18.799c.696 0 1.265.569 1.265 1.265 0 .696-.569 1.265-1.265 1.265z" fill="#939598"/></g><g><circle cx="55.694" cy="123.055" fill="#939598" r="1.389"/></g><g><path d="m47.187 233.832h-14.438c-1.1 0-2-.9-2-2v-2.146c0-1.1.9-2 2-2h14.437c1.1 0 2 .9 2 2v2.146c.001 1.1-.899 2-1.999 2z" fill="#939598"/></g></g></g></svg>