<svg id="Capa_1" enable-background="new 0 0 511.996 511.996" height="512" viewBox="0 0 511.996 511.996" width="512" xmlns="http://www.w3.org/2000/svg"><g><g><circle cx="329.899" cy="122.204" fill="#5d5360" r="79.233"/><path d="m385.925 66.178c-18.4-18.4-43.598-25.856-67.51-22.372 16.299 2.374 32 9.83 44.543 22.372 30.942 30.942 30.942 81.11 0 112.052-12.542 12.542-28.244 19.998-44.543 22.372 23.911 3.483 49.109-3.972 67.51-22.372 30.943-30.942 30.943-81.11 0-112.052z" fill="#4b3f4e"/><path d="m219.981 183.301-48.173 14.895-53.9-167.879c-1.886-5.875 1.387-12.161 7.282-13.983l26.984-8.344c5.806-1.795 11.976 1.418 13.833 7.204z" fill="#ffbd86"/><path d="m166.008 15.194c-1.858-5.786-8.027-8.999-13.833-7.204l-11.201 3.464c.9 1.071 1.614 2.327 2.068 3.74l53.973 168.106-27.28 8.435 2.074 6.46 48.173-14.896z" fill="#f6a96c"/><path d="m363.122 88.985-66.444 66.434c-18.315-18.314-18.315-48.12 0-66.434 18.324-18.315 48.119-18.315 66.444 0z" fill="#5d5360"/><path d="m417.302 219.752c.22 17.63-8.8 33.17-22.51 42.1-4.59 2.98-7.3 8.13-7.3 13.6v34.03h-261.18v-43.13c0-4.56-1.92-8.9-5.26-12.01-11.83-10.97-19.07-26.83-18.51-44.36.97-30.13 25.33-54.74 55.45-55.99 10.36-.44 20.14 1.87 28.71 6.23 10.73-22.76 32.29-39.41 58.05-43.28 3.75-.57 7.6-.86 11.51-.86 38.02 0 69.59 27.61 75.75 63.87.32 1.83.57 3.69.75 5.56 9.3-9.36 22.3-15.02 36.63-14.58 26.31.8 47.591 22.5 47.91 48.82z" fill="#ffe07d"/><g fill="#ffd064"><path d="m332.762 185.512c-2.75 6.351-4.75 12.83-10.44 18.56-3.38-35.16-30.91-79.5-77.57-87.13 3.75-.57 7.6-.86 11.51-.86 38.02 0 69.59 27.61 75.75 63.87.09 2.06.32 3.94.75 5.56z"/><path d="m369.394 170.932c-4.51-.137-8.888.332-13.062 1.328 21.547 5.162 37.727 24.571 38.009 47.488.217 17.635-8.8 33.174-22.517 42.1-4.586 2.984-7.297 8.135-7.297 13.607v34.027h22.967v-34.027c0-5.472 2.71-10.623 7.297-13.607 13.717-8.925 22.734-24.464 22.517-42.1-.325-26.316-21.609-48.014-47.914-48.816z"/></g><path d="m402.976 309.12-30.773 182.279c-1.078 7.519-7.509 13.093-15.099 13.093h-201.138c-7.58 0-14.021-5.574-15.099-13.093l-30.762-182.279c0-20.169 16.389-36.518 36.609-36.518 17.407 0 31.972 12.116 35.682 28.354.595 2.56.917 5.221.927 7.963.111-20.079 16.46-36.317 36.609-36.317s36.498 16.238 36.609 36.317c.01-1.068.06-2.117.151-3.155v-.02c1.714-18.587 17.377-33.141 36.458-33.141 20.149 0 36.498 16.238 36.599 36.317.01-1.018.061-2.036.151-3.034l.01-.141c1.703-18.587 17.377-33.141 36.448-33.141 20.219-.002 36.618 16.347 36.618 36.516z" fill="#e490b7"/><g><path d="m366.357 272.602c-4.013 0-7.872.652-11.485 1.842 14.596 4.805 25.137 18.509 25.137 34.676l-30.773 182.279c-1.078 7.52-7.509 13.094-15.099 13.094h22.967c7.59 0 14.021-5.574 15.099-13.094l30.773-182.279c0-20.169-16.399-36.518-36.619-36.518z" fill="#df75a5"/></g><g fill="#dd5790"><path d="m329.748 308.919-15.654 195.574h-57.554v-195.574l.151-3.155v-.02c1.714-18.587 17.377-33.141 36.458-33.141 20.149-.001 36.498 16.237 36.599 36.316z"/><path d="m198.694 504.492h-42.727c-7.58 0-14.021-5.574-15.099-13.093l-30.763-182.279c0-20.169 16.389-36.518 36.609-36.518 17.407 0 31.972 12.116 35.682 28.354l.927 7.963z"/></g></g><g><path d="m394.992 275.674v-.222c0-2.998 1.452-5.73 3.893-7.315 16.474-10.729 26.162-28.852 25.917-48.476.292-28.754-25.327-55.941-55.179-56.226-11.411-.348-22.277 2.588-31.668 8.412-5.99-23.699-23.602-45.427-47.024-55.815 1.284-8.219 5.104-15.805 11.043-21.744 15.396-15.38 40.451-15.381 55.848 0 2.932 2.928 7.68 2.925 10.607-.006s2.924-7.679-.006-10.606c-21.244-21.22-55.809-21.221-77.053.003-7.569 7.568-12.644 17.066-14.779 27.394-5.569-1.38-11.299-2.197-17.115-2.417 2.692-14.009 9.515-26.986 19.7-37.172 13.548-13.552 31.562-21.015 50.722-21.015s37.174 7.463 50.723 21.017c18.728 18.722 25.607 46.115 17.953 71.489-1.196 3.966 1.049 8.15 5.015 9.347.723.218 1.451.321 2.169.321 3.222 0 6.199-2.093 7.178-5.336 9.253-30.675.934-63.793-21.708-86.427-16.381-16.386-38.161-25.41-61.329-25.41s-44.948 9.024-61.329 25.409c-13.196 13.196-21.727 30.267-24.442 48.602-12.834 1.887-24.965 6.719-35.498 13.928l-35.478-110.514c-3.106-9.654-13.514-15.066-23.194-12.068l-26.976 8.339c-8.928 2.656-15.332 12.887-12.21 23.439l36.956 115.092c-29.289 5.823-51.694 31.386-52.681 62.046-.606 18.957 7.014 37.217 20.896 50.089 3.246 1.703 3.029 11.705 2.871 15.225-9.554 7.697-16.837 21.458-16.103 35.312l30.749 182.196c1.291 9.509 10.622 19.651 22.509 19.428h201.137c11.21 0 20.868-8.345 22.509-19.428l4.843-28.685c.689-4.084-2.062-7.955-6.147-8.644-4.083-.692-7.954 2.063-8.644 6.147l-4.856 28.768c-.01.061-.02.123-.028.184-.545 3.795-3.845 6.658-7.676 6.658h-34.887l15.005-187.476c-.413-15.268 12.974-29.705 29.133-29.415 15.856 0 28.794 12.697 29.112 28.425l-19.938 118.104c-.689 4.084 2.062 7.955 6.147 8.644 4.083.689 7.954-2.064 8.644-6.147l20.049-118.76c.818-12.713-5.871-26.719-15.38-34.694zm-211.675-125.113c-6.469-2.409-13.303-3.765-20.215-4.047l-4.709-14.666 28.153-28.153 9.656 30.081c-4.937 4.989-9.285 10.611-12.885 16.785zm-1.926-62.924-28.154 28.154-12.905-40.189 28.155-28.162zm-56.107-62.371c.258-.495.876-1.383 2.123-1.768l26.984-8.341c1.872-.579 3.881.468 4.479 2.329l4.461 13.895-28.156 28.163-10.124-31.53c-.398-1.237-.025-2.253.233-2.748zm30.682 471.726c-2.733.008-6.872-2.38-7.704-6.841l-30.652-181.624c-.236-14.033 13.271-28.837 29.103-28.425 15.215.224 29.078 12.139 29.109 28.844.016 4.129 3.365 7.468 7.493 7.472h.007c4.125 0 7.477-3.333 7.5-7.458.088-15.913 13.146-28.858 29.109-28.858s29.021 12.945 29.109 28.857v188.033h-43.412l-12.049-153.292c-.325-4.129-3.929-7.21-8.065-6.889-4.129.325-7.213 3.936-6.889 8.065l11.956 152.116zm108.074 0v-187.893c.423-30.193 41.552-41.298 55.832-11.453 1.302 3.107 2.333 6.755 2.369 11.066l-15.07 188.28zm65.651-212.47c-14.005-21.659-52.612-29.747-73.213.006-7.946-11.708-21.381-19.426-36.546-19.426-15.172 0-28.614 7.728-36.559 19.445-9.258-14.67-30.559-23.645-49.56-17.52.175-5.609-2.355-13.256-7.661-18.184-10.707-9.929-16.58-24.005-16.113-38.619.845-26.242 22.045-47.65 48.272-48.738 23.184.782 34.995 7.958 47.622 26.397 1.795 2.667 5.446 5.402 10.129 3.146 3.666-1.929 5.074-6.464 3.146-10.13-6.054-11.507-15.857-19.294-22.46-23.565 12.434-20.7 35.1-33.751 59.515-33.751 32.985-.65 64.577 26.051 68.676 59.65-2.904 3.761-7.8 10.945-9.875 18.959-1.038 4.01 1.371 8.102 5.381 9.141 3.079.804 7.574-.742 9.141-5.381 1.885-7.281 7.704-14.212 8.62-15.27 8.271-8.259 19.27-12.609 30.958-12.252 22.139.673 40.369 19.252 40.64 41.417.18 14.459-6.962 27.813-19.096 35.716-4.483 2.91-7.749 7.199-9.43 12.137-4.663-1.677-9.686-2.596-14.92-2.596-15.277-.002-28.75 7.61-36.667 19.418z"/><path d="m167.958 198.768c-2.929-2.929-7.678-2.929-10.606 0-2.929 2.929-2.929 7.678 0 10.606l15.973 15.973c1.464 1.464 3.384 2.197 5.303 2.197s3.839-.732 5.303-2.197c2.929-2.929 2.929-7.678 0-10.606z"/><path d="m286.865 216.935c-2.929-2.929-7.678-2.93-10.606 0-2.93 2.929-2.93 7.677-.001 10.606l15.973 15.974c1.465 1.465 3.384 2.197 5.304 2.197 1.919 0 3.839-.732 5.303-2.197 2.93-2.929 2.93-7.677.001-10.606z"/><path d="m280.52 148.847c-2.93-2.929-7.678-2.929-10.607 0l-15.974 15.974c-2.929 2.929-2.929 7.678 0 10.606 2.346 2.163 6.712 3.401 10.607 0l15.974-15.974c2.928-2.928 2.928-7.677 0-10.606z"/><path d="m232.945 203.444c-4.142 0-7.5 3.358-7.5 7.5v22.589c0 4.142 3.358 7.5 7.5 7.5s7.5-3.358 7.5-7.5v-22.589c0-4.143-3.358-7.5-7.5-7.5z"/><path d="m388.06 215.366c0-4.142-3.357-7.5-7.5-7.5h-22.59c-4.143 0-7.5 3.358-7.5 7.5s3.357 7.5 7.5 7.5h22.59c4.142 0 7.5-3.358 7.5-7.5z"/><path d="m217.112 36.856c1.464 1.464 3.384 2.197 5.303 2.197s3.839-.732 5.303-2.197l6.227-6.227 6.227 6.227c1.464 1.464 3.384 2.197 5.303 2.197s3.839-.732 5.303-2.197c2.929-2.929 2.929-7.678 0-10.606l-6.227-6.227 6.227-6.227c2.929-2.929 2.929-7.678 0-10.606s-7.678-2.929-10.606 0l-6.227 6.227-6.227-6.227c-2.929-2.929-7.678-2.929-10.606 0-2.929 2.929-2.929 7.678 0 10.606l6.227 6.227-6.227 6.227c-2.929 2.928-2.929 7.677 0 10.606z"/><path d="m102.512 109.743c0-4.231-3.43-7.661-7.661-7.661s-7.661 3.43-7.661 7.661 3.43 7.661 7.661 7.661c4.231.001 7.661-3.429 7.661-7.661z"/></g></g></svg>