<svg id="Capa_1" enable-background="new 0 0 512 512" height="512" viewBox="0 0 512 512" width="512" xmlns="http://www.w3.org/2000/svg"><g><g><g><path d="m163.681 338.833h-55.075c-4.667 0-8.586-3.514-9.093-8.154l-13.822-126.594h100.905l-13.822 126.594c-.507 4.64-4.426 8.154-9.093 8.154z" fill="#dd5790"/><path d="m162.948 204.085-13.822 126.594c-.507 4.64-4.425 8.154-9.093 8.154h23.647c4.667 0 8.586-3.514 9.093-8.154l13.822-126.594z" fill="#da387d"/><path d="m189.548 173.167h-106.81c-3.603 0-6.524 2.921-6.524 6.524v17.871c0 3.603 2.921 6.524 6.524 6.524h106.81c3.603 0 6.524-2.921 6.524-6.524v-17.872c0-3.603-2.921-6.523-6.524-6.523z" fill="#eaf9fa"/><path d="m189.548 173.167h-23.647c3.603 0 6.524 2.921 6.524 6.524v17.871c0 3.603-2.921 6.524-6.524 6.524h23.647c3.603 0 6.524-2.921 6.524-6.524v-17.872c0-3.603-2.921-6.523-6.524-6.523z" fill="#edf4ff"/></g><g><path d="m283.538 338.833h-55.075c-4.667 0-8.586-3.514-9.093-8.154l-13.822-126.594h100.905l-13.823 126.594c-.506 4.64-4.425 8.154-9.092 8.154z" fill="#dd5790"/><path d="m282.805 204.085-13.822 126.594c-.507 4.64-4.425 8.154-9.093 8.154h23.647c4.667 0 8.586-3.514 9.093-8.154l13.822-126.594z" fill="#da387d"/><path d="m309.405 173.167h-106.81c-3.603 0-6.524 2.921-6.524 6.524v17.871c0 3.603 2.921 6.524 6.524 6.524h106.81c3.603 0 6.524-2.921 6.524-6.524v-17.872c-.001-3.603-2.921-6.523-6.524-6.523z" fill="#eaf9fa"/><path d="m309.405 173.167h-23.647c3.603 0 6.524 2.921 6.524 6.524v17.871c0 3.603-2.921 6.524-6.524 6.524h23.647c3.603 0 6.524-2.921 6.524-6.524v-17.872c-.001-3.603-2.921-6.523-6.524-6.523z" fill="#edf4ff"/></g><g><path d="m403.394 338.833h-55.075c-4.667 0-8.586-3.514-9.093-8.154l-13.822-126.594h100.905l-13.822 126.594c-.507 4.64-4.425 8.154-9.093 8.154z" fill="#dd5790"/><path d="m402.662 204.085-13.822 126.594c-.507 4.64-4.425 8.154-9.093 8.154h23.647c4.667 0 8.586-3.514 9.092-8.154l13.822-126.594z" fill="#da387d"/><path d="m429.262 173.167h-106.81c-3.603 0-6.524 2.921-6.524 6.524v17.871c0 3.603 2.921 6.524 6.524 6.524h106.81c3.603 0 6.524-2.921 6.524-6.524v-17.872c-.001-3.603-2.921-6.523-6.524-6.523z" fill="#eaf9fa"/><path d="m429.262 173.167h-23.647c3.603 0 6.524 2.921 6.524 6.524v17.871c0 3.603-2.921 6.524-6.524 6.524h23.647c3.603 0 6.524-2.921 6.524-6.524v-17.872c-.001-3.603-2.921-6.523-6.524-6.523z" fill="#edf4ff"/></g><g><g><path d="m223.609 173.167h-55.075c-4.667 0-8.586-3.514-9.093-8.154l-13.822-126.594h100.905l-13.822 126.594c-.507 4.639-4.426 8.154-9.093 8.154z" fill="#dd5790"/><path d="m222.877 38.419-13.822 126.594c-.507 4.64-4.425 8.154-9.092 8.154h23.647c4.667 0 8.586-3.514 9.093-8.154l13.822-126.594z" fill="#da387d"/><path d="m249.476 7.5h-106.81c-3.603 0-6.524 2.921-6.524 6.524v17.871c0 3.603 2.921 6.524 6.524 6.524h106.81c3.603 0 6.524-2.921 6.524-6.524v-17.871c0-3.603-2.921-6.524-6.524-6.524z" fill="#eaf9fa"/><path d="m249.476 7.5h-23.647c3.603 0 6.524 2.921 6.524 6.524v17.871c0 3.603-2.921 6.524-6.524 6.524h23.647c3.603 0 6.524-2.921 6.524-6.524v-17.871c0-3.603-2.921-6.524-6.524-6.524z" fill="#edf4ff"/></g><g><path d="m343.466 173.167h-55.075c-4.667 0-8.586-3.514-9.093-8.154l-13.822-126.594h100.905l-13.822 126.594c-.507 4.639-4.426 8.154-9.093 8.154z" fill="#dd5790"/><path d="m342.734 38.419-13.822 126.594c-.507 4.64-4.425 8.154-9.093 8.154h23.647c4.667 0 8.586-3.514 9.093-8.154l13.822-126.594z" fill="#da387d"/><path d="m369.333 7.5h-106.81c-3.603 0-6.524 2.921-6.524 6.524v17.871c0 3.603 2.921 6.524 6.524 6.524h106.81c3.603 0 6.524-2.921 6.524-6.524v-17.871c0-3.603-2.921-6.524-6.524-6.524z" fill="#eaf9fa"/><path d="m369.333 7.5h-23.647c3.603 0 6.524 2.921 6.524 6.524v17.871c0 3.603-2.921 6.524-6.524 6.524h23.647c3.603 0 6.524-2.921 6.524-6.524v-17.871c0-3.603-2.921-6.524-6.524-6.524z" fill="#edf4ff"/></g></g><g><g><path d="m112.845 496.346c-.507 4.64-4.425 8.154-9.093 8.154h-55.075c-4.667 0-8.586-3.514-9.093-8.154l-13.822-126.594h100.905z" fill="#dd5790"/><path d="m103.02 369.752-13.822 126.594c-.507 4.64-4.425 8.154-9.093 8.154h23.647c4.667 0 8.586-3.514 9.093-8.154l13.822-126.594z" fill="#da387d"/><path d="m129.62 338.833h-106.81c-3.603 0-6.524 2.921-6.524 6.524v17.871c0 3.603 2.921 6.524 6.524 6.524h106.81c3.603 0 6.524-2.921 6.524-6.524v-17.871c-.001-3.603-2.922-6.524-6.524-6.524z" fill="#eaf9fa"/><path d="m129.62 338.833h-23.647c3.603 0 6.524 2.921 6.524 6.524v17.871c0 3.603-2.921 6.524-6.524 6.524h23.647c3.603 0 6.524-2.921 6.524-6.524v-17.871c-.001-3.603-2.921-6.524-6.524-6.524z" fill="#edf4ff"/></g><g><path d="m223.609 504.5h-55.075c-4.667 0-8.586-3.514-9.093-8.154l-13.822-126.594h100.905l-13.822 126.594c-.507 4.64-4.426 8.154-9.093 8.154z" fill="#dd5790"/><path d="m222.877 369.752-13.822 126.594c-.507 4.64-4.425 8.154-9.092 8.154h23.647c4.667 0 8.586-3.514 9.093-8.154l13.822-126.594z" fill="#da387d"/><path d="m249.476 338.833h-106.81c-3.603 0-6.524 2.921-6.524 6.524v17.871c0 3.603 2.921 6.524 6.524 6.524h106.81c3.603 0 6.524-2.921 6.524-6.524v-17.871c0-3.603-2.921-6.524-6.524-6.524z" fill="#eaf9fa"/><path d="m249.476 338.833h-23.647c3.603 0 6.524 2.921 6.524 6.524v17.871c0 3.603-2.921 6.524-6.524 6.524h23.647c3.603 0 6.524-2.921 6.524-6.524v-17.871c0-3.603-2.921-6.524-6.524-6.524z" fill="#edf4ff"/></g><g><path d="m343.466 504.5h-55.075c-4.667 0-8.586-3.514-9.093-8.154l-13.822-126.594h100.905l-13.822 126.594c-.507 4.64-4.426 8.154-9.093 8.154z" fill="#dd5790"/><path d="m342.734 369.752-13.822 126.594c-.507 4.64-4.425 8.154-9.093 8.154h23.647c4.667 0 8.586-3.514 9.093-8.154l13.822-126.594z" fill="#da387d"/><path d="m369.333 338.833h-106.81c-3.603 0-6.524 2.921-6.524 6.524v17.871c0 3.603 2.921 6.524 6.524 6.524h106.81c3.603 0 6.524-2.921 6.524-6.524v-17.871c0-3.603-2.921-6.524-6.524-6.524z" fill="#eaf9fa"/><path d="m369.333 338.833h-23.647c3.603 0 6.524 2.921 6.524 6.524v17.871c0 3.603-2.921 6.524-6.524 6.524h23.647c3.603 0 6.524-2.921 6.524-6.524v-17.871c0-3.603-2.921-6.524-6.524-6.524z" fill="#edf4ff"/></g><g><path d="m463.323 504.5h-55.075c-4.667 0-8.586-3.514-9.093-8.154l-13.822-126.594h100.905l-13.822 126.594c-.507 4.64-4.426 8.154-9.093 8.154z" fill="#dd5790"/><path d="m462.59 369.752-13.822 126.594c-.507 4.64-4.425 8.154-9.092 8.154h23.647c4.667 0 8.586-3.514 9.093-8.154l13.822-126.594z" fill="#da387d"/><path d="m489.19 338.833h-106.81c-3.603 0-6.524 2.921-6.524 6.524v17.871c0 3.603 2.921 6.524 6.524 6.524h106.81c3.603 0 6.524-2.921 6.524-6.524v-17.871c0-3.603-2.921-6.524-6.524-6.524z" fill="#eaf9fa"/><path d="m489.19 338.833h-23.647c3.603 0 6.524 2.921 6.524 6.524v17.871c0 3.603-2.921 6.524-6.524 6.524h23.647c3.603 0 6.524-2.921 6.524-6.524v-17.871c0-3.603-2.921-6.524-6.524-6.524z" fill="#edf4ff"/></g></g></g><path d="m489.19 331.333h-69.23l13.135-120.294c5.873-1.673 10.19-7.075 10.19-13.478v-17.871c0-7.732-6.291-14.023-14.023-14.023h-69.23l9.959-91.206c.45-4.118-2.524-7.82-6.642-8.27-4.115-.449-7.82 2.524-8.27 6.642l-9.976 91.366c-.091.837-.795 1.468-1.637 1.468h-55.075c-.842 0-1.545-.631-1.637-1.468l-12.915-118.28h92.542c7.888 1.18 16.933-4.924 16.976-14.023v-17.873c0-7.732-6.291-14.023-14.024-14.023h-226.666c-7.732 0-14.023 6.291-14.023 14.023v17.872c0 6.402 4.318 11.805 10.191 13.478l13.134 120.294h-69.23c-7.732 0-14.023 6.291-14.023 14.023v17.872c0 6.402 4.318 11.804 10.19 13.478l13.134 120.293h-69.23c-7.733 0-14.024 6.291-14.024 14.023v17.872c0 6.402 4.318 11.804 10.191 13.478l13.152 120.454c.924 8.461 8.038 14.84 16.548 14.84h55.075c8.511 0 15.625-6.38 16.548-14.84l4.305-39.425c.45-4.118-2.524-7.82-6.642-8.27-4.117-.451-7.82 2.524-8.27 6.642l-4.305 39.426c-.091.836-.795 1.467-1.637 1.467h-55.074c-.842 0-1.546-.631-1.637-1.468l-12.915-118.28h84.179l-4.772 43.705c-.45 4.118 2.524 7.82 6.642 8.27 4.112.452 7.82-2.523 8.27-6.642l5.01-45.879h5.381l13.152 120.454c.924 8.46 8.039 14.839 16.548 14.839h55.075c8.511 0 15.625-6.38 16.548-14.84l13.152-120.454h5.382l13.152 120.453c.923 8.46 8.037 14.84 16.548 14.84h55.075c8.51 0 15.625-6.379 16.548-14.84l13.152-120.454h5.381l13.152 120.456c.923 8.46 8.037 14.84 16.548 14.84h55.075c8.51 0 15.624-6.379 16.548-14.84l13.152-120.454c5.873-1.673 10.191-7.075 10.191-13.478v-17.872c0-7.731-6.291-14.023-14.024-14.023zm-.976 30.919h-104.857v-15.918h104.857zm-139.895-30.919c-.842 0-1.546-.631-1.637-1.468l-12.915-118.28h84.179l-12.915 118.281c-.091.836-.795 1.467-1.637 1.467zm-53.572-20.035c4.125.449 7.82-2.524 8.27-6.642l10.222-93.617h5.381l13.134 120.294h-103.291c-.842 0-1.545-.631-1.637-1.468l-12.915-118.28h84.179l-9.984 91.443c-.451 4.118 2.523 7.82 6.641 8.27zm-95.985-100.259 13.135 120.294h-31.651l13.134-120.294zm-33.444 118.826c-.091.837-.795 1.468-1.637 1.468h-55.075c-.842 0-1.545-.631-1.637-1.468l-12.915-118.28h84.179zm-21.675 32.387v-15.918h104.857v15.918zm119.857 0v-15.918h104.857v15.918zm164.785-181.585v15.918h-104.857v-15.918zm-119.857 0v15.918h-104.856v-15.918zm-68.253-15 13.134-120.294h5.382l13.134 120.294zm128.182-134.749h-104.857v-15.918h104.857zm-224.714-15.918h104.857v15.918h-104.857zm23.254 149.199-12.915-118.28h84.178l-12.915 118.281c-.091.836-.795 1.467-1.637 1.467h-55.075c-.841 0-1.545-.632-1.636-1.468zm-83.182 16.468h104.857v15.918h-104.857zm-59.929 181.585v-15.918h104.857v15.918zm201.46 133.281c-.091.836-.795 1.467-1.637 1.467h-55.075c-.842 0-1.546-.631-1.637-1.468l-12.915-118.28h84.178zm119.857-.001c-.091.837-.795 1.468-1.637 1.468h-55.075c-.842 0-1.545-.631-1.637-1.468l-12.915-118.28h84.178zm119.857 0c-.091.837-.795 1.468-1.637 1.468h-55.075c-.842 0-1.545-.631-1.637-1.468l-12.915-118.28h84.179z"/></g></svg>