<svg id="Capa_1" enable-background="new 0 0 512.003 512.003" height="512" viewBox="0 0 512.003 512.003" width="512" xmlns="http://www.w3.org/2000/svg"><g><g><path d="m355.588 396.018h-308.216v-206.452c0-9.273 7.517-16.789 16.789-16.789h153.169c6.329 0 12.12 3.559 14.979 9.205l11.157 22.035c2.859 5.646 8.65 9.205 14.979 9.205h80.353c9.273 0 16.789 7.517 16.789 16.789v166.007z" fill="#5d5360"/><g fill="#4b3f4e"><path d="m206.069 181.981 11.157 22.035c2.859 5.646 8.65 9.205 14.979 9.205h26.24c-6.329 0-12.12-3.559-14.979-9.205l-11.157-22.035c-2.859-5.646-8.65-9.205-14.979-9.205h-26.24c6.329 0 12.12 3.559 14.979 9.205z"/><path d="m338.798 213.221h-26.24c9.273 0 16.789 7.517 16.789 16.789v166.008h26.24v-166.008c.001-9.272-7.516-16.789-16.789-16.789z"/></g><path d="m355.588 253.666h52.678v142.352h-52.678z" fill="#e490b7" transform="matrix(-1 0 0 -1 763.853 649.684)"/><path d="m382.025 253.666h26.24v142.352h-26.24z" fill="#df75a5"/><path d="m490.687 430.658-82.422-34.64v-142.352l82.422-34.64c6.561-2.758 13.813 2.061 13.813 9.178v193.276c0 7.117-7.252 11.935-13.813 9.178z" fill="#5d5360"/><path d="m490.687 219.026-14.662 6.162c1.376 1.684 2.235 3.835 2.235 6.266v181.952c0 4.405-2.78 7.924-6.453 9.316l18.88 7.935c6.561 2.758 13.813-2.061 13.813-9.178v-193.275c0-7.117-7.252-11.935-13.813-9.178z" fill="#4b3f4e"/><g><path d="m336.276 213.225-52.477-113.408c-5.847-11.87-17.707-19.244-30.938-19.244h-136.745c-19.016 0-34.49 15.474-34.49 34.49v57.712h31.156v-57.712c0-1.838 1.495-3.334 3.334-3.334h136.744c1.277 0 2.42.717 2.991 1.859l46.111 99.637" fill="#79737a"/></g><g fill="#6f6571"><path d="m94.772 115.062v57.711h18.01v-57.711c0-1.838 1.495-3.334 3.334-3.334h-18.01c-1.838.001-3.334 1.496-3.334 3.334z"/><path d="m283.799 99.817c-5.847-11.87-17.707-19.244-30.938-19.244h-18.01c13.231 0 25.091 7.374 30.938 19.244l52.477 113.408h18.01z"/></g><path d="m47.372 396.018h-21.883c-9.935 0-17.989-8.054-17.989-17.989v-75.643c0-9.935 8.054-17.989 17.989-17.989h21.883z" fill="#c365af"/><path d="m26.436 284.397h20.936v111.621h-20.936z" fill="#b2529f"/><path d="m250.902 349.231h-140.475c-8.019 0-14.52-6.501-14.52-14.52v-66.526c0-8.019 6.501-14.52 14.52-14.52h140.476c8.019 0 14.52 6.501 14.52 14.52v66.526c-.001 8.02-6.502 14.52-14.521 14.52z" fill="#dad8db"/><path d="m250.902 253.666h-26.24c8.019 0 14.52 6.501 14.52 14.52v66.526c0 8.019-6.501 14.52-14.52 14.52h26.24c8.019 0 14.52-6.501 14.52-14.52v-66.526c0-8.02-6.501-14.52-14.52-14.52z" fill="#c8c5c9"/><circle cx="152.718" cy="301.449" fill="#edf4ff" r="22.754"/><path d="m152.718 278.695c-4.146 0-8.029 1.114-11.377 3.052 6.799 3.935 11.377 11.281 11.377 19.702s-4.578 15.767-11.377 19.702c3.348 1.937 7.231 3.052 11.377 3.052 12.567 0 22.754-10.187 22.754-22.754s-10.187-22.754-22.754-22.754z" fill="#dbeaff"/></g><g><path d="m504.205 213.665c-4.88-3.244-11.021-3.824-16.423-1.553l-81.028 34.054h-43.666v-16.155c0-12.61-9.66-23.003-21.967-24.176l-50.516-109.168c-.025-.055-.052-.11-.079-.165-7.118-14.452-21.551-23.43-37.666-23.43h-136.744c-23.153 0-41.99 18.836-41.99 41.99v50.214h-9.965c-13.393 0-24.289 10.896-24.289 24.29v87.332h-14.383c-14.055-.001-25.489 11.433-25.489 25.488v75.643c0 14.055 11.434 25.489 25.489 25.489h382.776c4.142 0 7.5-3.358 7.5-7.5v-137.369l77.828-32.709c1.293-.259 2.666-.496 3.407 2.264v193.276c-.261 1.293-.576 2.649-3.407 2.264l-49.963-20.998c-3.82-1.604-8.215.19-9.82 4.008s.189 8.215 4.008 9.82l49.962 20.998c9.635 4.67 24.478-3.184 24.219-16.092v-193.276c.001-5.86-2.913-11.295-7.794-14.539zm-210.82-36.833-30.727-66.394c-.032-.069-.064-.137-.099-.204-1.852-3.704-5.568-6.005-9.699-6.005h-136.744c-5.974 0-10.833 4.86-10.833 10.833v50.211h-16.157v-50.211c0-14.882 12.107-26.99 26.99-26.99h136.744c10.33 0 19.584 5.738 24.172 14.981l47.507 102.667h-66.095c-3.521 0-6.697-1.952-8.288-5.093l-11.156-22.034c-4.159-8.214-12.462-13.317-21.669-13.317h-97.048v-46.047h129.916l29.573 63.903c1.74 3.76 6.199 5.397 9.957 3.657s5.396-6.198 3.656-9.957zm-278.385 201.197v-75.643c0-5.784 4.705-10.489 10.489-10.489h14.383v96.621h-14.383c-5.784 0-10.489-4.705-10.489-10.489zm39.872-188.463c0-5.122 4.167-9.29 9.289-9.29h153.169c3.521 0 6.697 1.952 8.288 5.093l11.157 22.035c4.159 8.214 12.462 13.317 21.669 13.317h77.753c5.204-.864 11.655 2.788 11.889 9.29v158.507h-293.214zm308.215 71.6h37.678v127.352h-37.678z"/><path d="m250.902 246.166h-140.475c-12.142 0-22.02 9.878-22.02 22.02v66.526c0 12.142 9.878 22.02 22.02 22.02h83.227c4.142 0 7.5-3.358 7.5-7.5s-3.358-7.5-7.5-7.5h-83.227c-3.871 0-7.02-3.149-7.02-7.02v-66.526c0-3.871 3.149-7.02 7.02-7.02h140.476c3.871 0 7.02 3.149 7.02 7.02v66.526c0 3.871-3.149 7.02-7.02 7.02h-21.611c-4.142 0-7.5 3.358-7.5 7.5s3.358 7.5 7.5 7.5h21.611c12.142 0 22.02-9.878 22.02-22.02v-66.526c-.001-12.142-9.879-22.02-22.021-22.02z"/><path d="m122.464 301.449c0 16.682 13.572 30.254 30.254 30.254s30.253-13.572 30.253-30.254-13.572-30.254-30.253-30.254c-16.682 0-30.254 13.571-30.254 30.254zm45.508 0c0 8.411-6.843 15.254-15.253 15.254-8.411 0-15.254-6.843-15.254-15.254s6.843-15.254 15.254-15.254c8.41 0 15.253 6.842 15.253 15.254z"/><path d="m238.792 301.449c0-4.142-3.358-7.5-7.5-7.5h-22.34c-4.142 0-7.5 3.358-7.5 7.5s3.358 7.5 7.5 7.5h22.34c4.142 0 7.5-3.358 7.5-7.5z"/></g></g></svg>