<svg id="Capa_1" enable-background="new 0 0 512 512" height="512" viewBox="0 0 512 512" width="512" xmlns="http://www.w3.org/2000/svg"><g><g><path d="m199.328 273.469h74.418v64.214h-74.418z" fill="#ffbd86"/><path d="m251.279 273.469h22.467v64.214h-22.467z" fill="#f6a96c"/><path d="m443.231 504.5h-413.388l9.751-108.129c2.997-33.232 30.852-58.689 64.219-58.689h265.447c33.367 0 61.223 25.456 64.219 58.689z" fill="#eceaec"/><path d="m433.48 396.371c-2.997-33.232-30.852-58.689-64.219-58.689h-22.467c33.367 0 61.223 25.456 64.219 58.689l9.751 108.129h22.467z" fill="#dad8db"/><path d="m270.403 300.727h-67.732c-39.421 0-71.379-31.957-71.379-71.379v-153.51h210.489v153.511c.001 39.421-31.957 71.378-71.378 71.378z" fill="#fed2a4"/><path d="m319.315 75.838v153.511c0 39.421-31.957 71.379-71.379 71.379h22.467c39.421 0 71.379-31.958 71.379-71.379v-153.511z" fill="#ffbd86"/><path d="m131.292 204.562h-23.052c-14.375 0-26.028-11.653-26.028-26.028v-23.54c0-14.375 11.653-26.028 26.028-26.028h23.052z" fill="#fed2a4"/><path d="m108.826 128.965h22.467v75.597h-22.467z" fill="#ffbd86"/><path d="m341.782 204.562h23.052c14.375 0 26.028-11.653 26.028-26.028v-23.54c0-14.375-11.653-26.028-26.028-26.028h-23.052z" fill="#fed2a4"/><path d="m364.834 128.965h-22.467c14.375 0 26.028 11.653 26.028 26.028v23.54c0 14.375-11.653 26.028-26.028 26.028h22.467c14.375 0 26.028-11.653 26.028-26.028v-23.54c0-14.375-11.653-26.028-26.028-26.028z" fill="#ffbd86"/><path d="m247.041 330.033h-21.007c-4.474 0-8.101 3.627-8.101 8.101v42.306c0 4.474 3.627 8.101 8.101 8.101h21.007c4.474 0 8.101-3.627 8.101-8.101v-42.306c0-4.474-3.627-8.101-8.101-8.101z" fill="#dd5790"/><path d="m247.041 330.033h-21.007c-.246 0-.489.015-.73.037 4.132.37 7.371 3.836 7.371 8.064v42.306c0 4.228-3.24 7.694-7.371 8.064.241.022.483.037.73.037h21.007c4.474 0 8.101-3.627 8.101-8.101v-42.306c0-4.474-3.627-8.101-8.101-8.101z" fill="#da387d"/><path d="m217.934 337.68v39.83l-21.75 6.27-21.71 6.25c-6.12 1.77-12.21-2.82-12.21-9.19v-33.59c0-5.28 4.28-9.57 9.56-9.57z" fill="#dd5790"/><path d="m217.934 337.68v39.83l-21.75 6.27c-.46-1.01-.72-2.15-.72-3.34v-42.31c0-.15 0-.3.01-.45z" fill="#da387d"/><path d="m301.25 337.683h-46.108v39.826l43.459 12.526c6.115 1.763 12.214-2.827 12.214-9.191v-33.596c0-5.283-4.283-9.565-9.565-9.565z" fill="#dd5790"/><path d="m301.25 337.683h-22.467c5.283 0 9.565 4.282 9.565 9.565v33.596c0 2.166-.718 4.116-1.891 5.691l12.143 3.5c6.115 1.763 12.214-2.827 12.214-9.191v-33.596c.001-5.283-4.282-9.565-9.564-9.565z" fill="#da387d"/><path d="m341.782 128.965-47.366-37.888-24.408 17.683c-15.821 11.462-34.858 17.633-54.394 17.633h-84.322l-39.896-66.567c-3.098-5.169-4.734-11.082-4.734-17.109v-1.938c0-18.38 14.9-33.279 33.279-33.279h175.535c35.371 0 64.044 28.674 64.044 64.044 0 7.985-1.493 15.899-4.403 23.335z" fill="#ffe07d"/><g><path d="m295.476 7.5h-22.467c35.371 0 64.044 28.674 64.044 64.044 0 7.985-1.493 15.899-4.403 23.335l-7.981 20.398 17.111 13.688 13.336-34.085c2.909-7.436 4.403-15.35 4.403-23.335.001-35.371-28.672-64.045-64.043-64.045z" fill="#ffd064"/></g><path d="m465.525 504.5h-176.68c-4.58 0-8.673-2.86-10.248-7.162l-5.958-16.277c-1.678-4.585 1.716-9.443 6.599-9.443h195.893c4.883 0 8.277 4.857 6.599 9.443l-5.958 16.277c-1.574 4.302-5.667 7.162-10.247 7.162z" fill="#5d5360"/><path d="m475.131 471.619h-22.467c4.883 0 8.277 4.857 6.599 9.443l-5.958 16.277c-1.574 4.302-5.667 7.162-10.248 7.162h22.467c4.581 0 8.673-2.86 10.248-7.162l5.958-16.277c1.678-4.586-1.716-9.443-6.599-9.443z" fill="#4b3f4e"/><g><path d="m406.042 304.566v68.189c0 15.174-12.296 27.47-27.47 27.47h-6.79c-15.164 0-27.46-12.296-27.46-27.47v-68.189c0-3.45 2.798-6.248 6.248-6.248h49.214c3.45-.001 6.258 2.798 6.258 6.248z" fill="#eaf9fa"/></g><path d="m399.784 298.317h-22.467c3.45 0 6.258 2.798 6.258 6.248v68.189c0 12.449-8.278 22.955-19.63 26.329 2.484.739 5.113 1.141 7.836 1.141h6.79c15.174 0 27.47-12.296 27.47-27.47v-68.189c.001-3.449-2.807-6.248-6.257-6.248z" fill="#edf4ff"/><path d="m445.228 421.444c2.987-2.987 8.01-2.381 10.162 1.254 7.363 12.436 5.699 28.735-4.991 39.426s-26.99 12.354-39.426 4.991c-3.635-2.152-4.24-7.175-1.254-10.162z" fill="#ffe07d"/><path d="m455.389 422.697c-2.152-3.635-7.175-4.24-10.162-1.254l-7.104 7.104c3.947 11.37 1.406 24.493-7.676 33.575-3.759 3.759-8.218 6.377-12.952 7.904 11.212 3.618 24 .999 32.903-7.904 10.69-10.689 12.354-26.988 4.991-39.425z" fill="#ffd064"/><path d="m236.584 219.688h-.094c-8.825 0-15.979-7.154-15.979-15.979v-21.524c0-8.825 7.154-15.979 15.979-15.979h.094c8.825 0 15.979 7.154 15.979 15.979v21.524c-.001 8.825-7.154 15.979-15.979 15.979z" fill="#ffbd86"/><path d="m236.584 166.207h-.094c-2.935 0-5.676.805-8.039 2.185 4.743 2.771 7.939 7.903 7.939 13.793v21.524c0 5.89-3.196 11.022-7.939 13.793 2.364 1.381 5.104 2.185 8.039 2.185h.094c8.825 0 15.979-7.154 15.979-15.979v-21.524c-.001-8.823-7.154-15.977-15.979-15.977z" fill="#f6a96c"/><path d="m406.042 337.682v35.073c0 15.174-12.296 27.47-27.47 27.47h-6.79c-15.164 0-27.46-12.296-27.46-27.47v-35.073z" fill="#c365af"/><path d="m383.576 337.682v35.073c0 12.449-8.278 22.955-19.63 26.329 2.484.739 5.113 1.141 7.836 1.141h6.79c15.174 0 27.47-12.296 27.47-27.47v-35.073z" fill="#b2529f"/></g><g><path d="m127.132 330.18h-23.318c-18.016 0-35.261 6.693-48.559 18.848-13.297 12.153-21.512 28.727-23.131 46.669l-9.75 108.13c-.372 4.126 2.671 7.771 6.796 8.144.229.021.457.03.682.03 3.838 0 7.109-2.931 7.461-6.826l9.75-108.129c1.282-14.204 7.785-27.325 18.312-36.945 10.527-9.621 24.178-14.92 38.439-14.92h23.318c4.142 0 7.5-3.357 7.5-7.5s-3.358-7.501-7.5-7.501z"/><path d="m487.038 470.325c-2.716-3.886-7.167-6.206-11.908-6.206h-16.479c10.277-12.838 11.716-30.842 3.191-45.242-2.209-3.731-5.948-6.184-10.259-6.728-3.181-.401-6.315.287-8.978 1.898l-1.652-18.353c-1.804-19.94-11.727-38.052-27.411-50.283v-40.846c0-7.581-6.172-13.748-13.758-13.748h-49.214c-7.581 0-13.748 6.167-13.748 13.748v25.614h-55.578v-22.703c15.024-2.084 29.212-8.463 40.781-18.484 14.173-12.276 23.531-29.193 26.35-47.636.626-4.095-2.186-7.922-6.281-8.548-4.093-.62-7.921 2.187-8.547 6.28-2.281 14.924-9.861 28.62-21.343 38.565-11.595 10.044-26.44 15.575-41.8 15.575h-67.73c-35.224 0-63.88-28.657-63.88-63.881v-95.457h76.82c33.954.371 55.928-16.374 78.577-33.392l40.09 32.069v71.992c0 4.143 3.358 7.5 7.5 7.5h23.053c18.487 0 33.528-15.041 33.528-33.528v-23.54c0-18.487-15.041-33.528-33.528-33.528h-12.065l9.332-23.853c3.264-8.341 4.918-17.111 4.918-26.068.001-39.447-32.093-71.542-71.543-71.542h-175.535c-22.486 0-40.78 18.294-40.78 40.779v1.938c0 7.382 2.006 14.632 5.802 20.964l34.632 57.783h-11.355c-18.488 0-33.528 15.041-33.528 33.528v23.54c0 18.487 15.041 33.528 33.528 33.528h15.554v17.288c0 39.813 29.653 72.811 68.03 78.116v22.717h-19.999c-9.41 0-17.065 7.655-17.065 17.065v33.596c.187 10.192 9.761 19.676 21.792 16.398l35.371-10.195c2.494 5.304 7.874 8.994 14.112 8.994h3.003v108.461c0 4.143 3.358 7.5 7.5 7.5s7.5-3.357 7.5-7.5v-108.459h3.004c6.238 0 11.618-3.69 14.112-8.994l35.372 10.195c8.838 3.152 22.235-4.658 21.791-16.398-.113-6.46.229-30.31-.138-35.664h18.646v27.575c0 17.895 13.509 32.684 30.86 34.722v56.642h-23.36c-4.142 0-7.5 3.357-7.5 7.5s3.358 7.5 7.5 7.5h130.132l-5.725 15.642c-.49 1.339-1.778 2.239-3.205 2.239h-176.68c-1.426 0-2.714-.9-3.205-2.24l-5.725-15.641h29.305c4.142 0 7.5-3.357 7.5-7.5s-3.358-7.5-7.5-7.5h-29.982c-4.741 0-9.192 2.32-11.908 6.206-2.715 3.886-3.364 8.862-1.734 13.314l5.958 16.275c2.645 7.229 9.594 12.085 17.291 12.085h176.68c7.697 0 14.646-4.856 17.291-12.084l5.958-16.276c1.626-4.451.978-9.428-1.738-13.314zm-103.676-315.332v23.54c0 10.217-8.312 18.528-18.528 18.528h-15.553l.002-60.597h15.551c10.217.001 18.528 8.312 18.528 18.529zm-289.201-112.275v-1.938c0-14.215 11.565-25.779 25.78-25.779h175.535c31.179 0 56.544 25.365 56.544 56.544 0 7.079-1.308 14.011-3.887 20.604l-9.624 24.596-36.593-29.271v-47.305c0-4.143-3.358-7.5-7.5-7.5s-7.5 3.357-7.5 7.5v47.081c-20.156 15.627-44.188 32.861-71.302 31.643h-80.073l-37.712-62.922c-2.399-4.004-3.668-8.586-3.668-13.253zm29.631 154.344h-15.552c-10.217 0-18.528-8.312-18.528-18.528v-23.54c0-10.217 8.312-18.528 18.528-18.528h15.552zm321.303 259.757c-7.377 7.052-18.55 9.724-29.129 4.493l33.622-33.622c5.006 9.592 3.243 21.393-4.493 29.129zm-46.553-151.002v24.365h-46.72v-24.365zm-191.718 2.413h59.42v21.949h-5.807c-2.724-4.569-7.701-7.646-13.396-7.646h-21.007c-5.697 0-10.675 3.078-13.398 7.649h-5.811v-21.952zm-34.427 74.598c-.6-.293-1.3 1.128-2.638-1.984v-33.596c0-1.139.927-2.065 2.065-2.065h38.608v26.683zm75.244-2.389c0 .332-.27.602-.601.602h-21.007c-.332 0-.601-.27-.601-.602v-42.306c0-.331.27-.601.601-.601h21.007c.331 0 .601.27.601.601zm55.674.405c-.447.495.722 1.562-2.637 1.984l-38.036-10.963v-26.683h38.608c1.139 0 2.065.927 2.065 2.065zm48.507-8.089v-27.572h46.72v27.572c0 11.012-8.958 19.971-19.97 19.971h-6.79c-11.006 0-19.96-8.959-19.96-19.971zm30.86 34.721c19.75-1.98 33.109-21.327 30.86-41.17 7.041 8.686 11.44 19.331 12.472 30.737l2.726 30.281-24.325 24.325c-2.275 2.258-4.806 7.409-3.843 12.47h-17.891v-56.643z"/><path d="m116.948 413.591c-4.142 0-7.5 3.357-7.5 7.5v83.409c0 4.143 3.358 7.5 7.5 7.5s7.5-3.357 7.5-7.5v-83.409c0-4.143-3.358-7.5-7.5-7.5z"/><path d="m236.49 227.188h.094c12.946 0 23.479-10.532 23.479-23.479v-21.524c0-12.946-10.532-23.479-23.572-23.479-12.946 0-23.479 10.532-23.479 23.479v21.524c0 12.947 10.532 23.479 23.478 23.479zm-8.478-45.002c0-4.675 3.803-8.479 8.572-8.479 4.675 0 8.479 3.804 8.479 8.479v21.524c0 4.675-3.803 8.479-8.479 8.479h-.094c-4.675 0-8.479-3.804-8.479-8.479v-21.524z"/><path d="m291.022 156.221v21.085c0 4.143 3.358 7.5 7.5 7.5s7.5-3.357 7.5-7.5v-21.085c0-4.143-3.358-7.5-7.5-7.5s-7.5 3.357-7.5 7.5z"/><path d="m167.052 156.221v21.085c0 4.143 3.358 7.5 7.5 7.5s7.5-3.357 7.5-7.5v-21.085c0-4.143-3.358-7.5-7.5-7.5s-7.5 3.357-7.5 7.5z"/><path d="m210.809 252.533c5.725 8.682 15.343 13.865 25.728 13.865s20.003-5.184 25.728-13.865c2.28-3.458 1.325-8.11-2.133-10.391-3.458-2.279-8.11-1.326-10.39 2.133-2.941 4.46-7.877 7.123-13.206 7.123s-10.265-2.663-13.206-7.123c-2.28-3.458-6.932-4.412-10.39-2.133-3.456 2.281-4.411 6.933-2.131 10.391z"/></g></g></svg>