<svg id="Capa_1" enable-background="new 0 0 511.993 511.993" height="512" viewBox="0 0 511.993 511.993" width="512" xmlns="http://www.w3.org/2000/svg"><g><g><path d="m95.178 502.875-18.442-18.442c-2.166-2.166-2.166-5.679 0-7.845l199.149-199.149 26.287 26.287-199.149 199.149c-2.167 2.167-5.679 2.167-7.845 0z" fill="#eaf9fa"/><path d="m286.648 288.203-199.149 199.148c-2.166 2.166-5.679 2.166-7.845 0l15.524 15.524c2.166 2.166 5.679 2.166 7.845 0l199.149-199.149z" fill="#edf4ff"/><path d="m241.63 349.81-11.829-11.829c-3.992-3.992-3.992-10.465 0-14.458l27.87-27.87 26.287 26.287-27.87 27.87c-3.993 3.993-10.466 3.993-14.458 0z" fill="#dd5790"/><path d="m283.953 321.936-27.868 27.878c-3.988 3.988-10.458 3.988-14.456 0l-11.824-11.835c-.643-.643-1.165-1.346-1.608-2.09 3.918 2.27 9.011 1.748 12.367-1.607l27.828-27.909z" fill="#da387d"/><path d="m257.672 295.655-27.205 27.195-18.073-12.277-19.339-13.141c-6.158-4.189-6.992-12.95-1.728-18.224l16.245-16.235c4.812-4.812 12.608-4.812 17.42 0l17.159 17.159z" fill="#dd5790"/><path d="m257.672 295.655-27.205 27.195-18.073-12.277c.472-.924 29.757-30.44 29.757-30.44z" fill="#da387d"/><path d="m256.756 349.142 25.426 37.416c4.187 6.162 12.948 6.99 18.216 1.722l16.239-16.239c4.811-4.811 4.811-12.611 0-17.422l-32.679-32.679z" fill="#dd5790"/><g><path d="m316.637 354.619-15.524-15.524c4.811 4.811 4.81 12.611 0 17.422l-16.239 16.239c-2.701 2.701-6.319 3.788-9.769 3.387l7.078 10.415c4.187 6.161 12.948 6.99 18.216 1.722l16.239-16.239c4.81-4.811 4.81-12.611-.001-17.422z" fill="#da387d"/></g><g><path d="m285.018 45.995-45.469 45.469-38.638 38.638-45.821 45.831-38.628 38.628-25.126 25.116-22.494 22.504c-1.648 1.648-3.094 3.426-4.33 5.304-4.189 6.309-6.058 13.723-5.596 21.017.482 8.047 3.798 15.944 9.926 22.072l2.371 2.371c3.114 3.124 6.721 5.556 10.659 7.243 4.219 1.818 8.801 2.773 13.532 2.773 9.142 0 17.742-3.556 24.201-10.016.673-.673 1.366-1.286 2.1-1.849 5.807-4.541 13.321-5.827 20.103-3.878 3.546 1.025 6.902 2.933 9.695 5.726 8.811 8.801 8.811 23.086 0 31.897-8.549 8.549-18.706 14.909-29.797 18.786-8.338 2.924-17.199 4.44-26.301 4.44-16.898 0-33.002-5.254-46.424-14.989-3.406-2.461-6.631-5.214-9.665-8.238l-2.371-2.371c-2.07-2.08-4.008-4.24-5.807-6.48-.01-.01-.01-.01-.02-.02-3.004-3.747-5.626-7.705-7.846-11.824-15.22-28.14-12.196-63.613 9.062-88.839 1.447-1.728 2.984-3.396 4.611-5.023l22.504-22.494 57.013-57.023 84.449-84.449 38.638-38.638 13.573-13.573c8.811-8.811 23.096-8.811 31.897 0 8.81 8.803 8.81 23.088-.001 31.889z" fill="#eceaec"/></g><g fill="#dad8db"><path d="m151.503 344.842c-8.549 8.549-18.706 14.909-29.797 18.786-8.338 2.924-17.199 4.44-26.301 4.44-16.898 0-33.002-5.254-46.424-14.989-3.406-2.461-6.631-5.214-9.665-8.238l-2.371-2.371c-2.07-2.08-4.008-4.24-5.807-6.48 13.291 10.448 29.948 16.838 48.745 16.556 21.137 0 41.089-8.218 56.098-23.227 6.811-7.042 7.957-15.15 5.696-22.122.04.01.08.02.13.02 3.546 1.025 6.902 2.933 9.695 5.726 8.812 8.802 8.812 23.088.001 31.899z"/><path d="m285.018 14.108c-2.826-2.829-6.221-4.738-9.816-5.75 2.268 6.952 1.11 15.052-5.708 22.113-71.064 71.996-150.531 148.735-220.507 221.489-12.869 19.449-2.676 41.06 13.901 50.588-2.35-4.391-3.68-9.19-3.971-14.046-.462-7.294 1.407-14.708 5.596-21.017 1.236-1.879 2.682-3.657 4.33-5.304l22.494-22.504 25.126-25.116 38.628-38.628 45.821-45.831 38.638-38.638 45.469-45.469c8.81-8.801 8.81-23.086-.001-31.887z"/></g><path d="m239.549 27.68v63.784l-38.638 38.638v-63.784z" fill="#dd5790"/><path d="m91.336 239.677-22.494 22.504c-1.648 1.648-3.094 3.426-4.33 5.304l-32.178-32.178c1.447-1.728 2.984-3.396 4.611-5.023l22.504-22.494z" fill="#dd5790"/><path d="m91.336 239.677-22.494 22.504c-1.648 1.648-3.094 3.426-4.33 5.304l-15.521-15.521c8.831-9.182 17.812-18.425 26.914-27.718z" fill="#da387d"/><path d="m81.873 320.188-32.892 32.892c-3.406-2.461-6.631-5.214-9.665-8.238l-2.371-2.371c-5.556-5.556-10.117-11.744-13.673-18.324l35.644-35.644c.482 8.047 3.798 15.944 9.926 22.072l2.371 2.371c3.115 3.123 6.721 5.554 10.66 7.242z" fill="#dd5790"/><path d="m31.179 336.031c6.701 5.264 14.256 9.494 22.504 12.347l-4.702 4.702c-3.406-2.461-6.631-5.214-9.665-8.238l-2.371-2.371c-2.059-2.07-3.978-4.21-5.766-6.44z" fill="#da387d"/><path d="m62.895 302.557c-3.717-2.13-7.103-4.862-9.986-8.047l6.008-6.008c.291 4.863 1.617 9.665 3.978 14.055z" fill="#da387d"/><path d="m151.503 344.842c-8.549 8.549-18.706 14.909-29.797 18.786v-52.532c8.851-6.912 21.66-6.289 29.797 1.849 8.811 8.8 8.811 23.086 0 31.897z" fill="#dd5790"/><path d="m151.503 344.842c-8.549 8.549-18.706 14.909-29.797 18.786v-22.966c5.114-3.175 9.906-6.972 14.276-11.342 6.811-7.053 7.967-15.16 5.696-22.132 3.596 1.005 6.992 2.923 9.825 5.757 8.811 8.8 8.811 23.086 0 31.897z" fill="#da387d"/><path d="m155.09 112.139v63.794l-38.628 38.628v-63.794z" fill="#dd5790"/><path d="m239.549 60.622v30.842l-38.638 38.638v-30.962c12.99-12.92 25.909-25.769 38.638-38.518z" fill="#da387d"/><path d="m155.09 144.659v31.274l-38.628 38.628v-31.344c12.789-12.829 25.698-25.698 38.628-38.558z" fill="#da387d"/><path d="m459.02 308.795c-19.62 19.62-43.832 31.827-69.169 36.629-41.813 7.937-86.679-4.27-119.038-36.629-3.466-3.466-6.691-7.062-9.685-10.8-.01-.01-.01-.02-.02-.03-25.729-31.977-34.499-73.087-26.301-111.283 5.184-24.212 17.189-47.268 36.006-66.094 51.969-51.969 136.238-51.979 188.207 0 6.45 6.44 12.106 13.392 16.948 20.705 7.859 11.862 13.594 24.702 17.234 38.006.002-.014.004-.027.006-.041.121.422.231.854.352 1.296.08.291.161.583.241.884 11.331 44.084-.272 92.839-34.781 127.357z" fill="#fff0af"/><path d="m459.02 308.795c-19.62 19.62-43.832 31.827-69.169 36.629-41.813 7.937-86.679-4.27-119.038-36.629-3.466-3.466-6.691-7.062-9.685-10.8-.01-.01-.01-.02-.02-.03 31.123 25.035 72.896 37.031 110.218 29.948 25.347-4.802 48.584-17.028 69.169-35.634 45.379-41.039 47.057-73.519 52.713-113.021.121.422.231.854.352 1.296.08.291.161.583.241.884 11.331 44.084-.272 92.839-34.781 127.357z" fill="#ffe07d"/><path d="m459.02 308.795c-19.62 19.62-43.832 31.827-69.169 36.629.502-7.766.633-15.331.462-22.634-1.467-63.262-25.397-108.098-25.397-108.098 45.238-45.238 85.202-64.879 111.052-73.398 7.85 11.85 13.593 24.681 17.237 37.978l.002-.013c.05.161.091.332.141.502 12.076 44.525.623 94.073-34.328 129.034z" fill="#6fd7a3"/><path d="m475.965 141.294c-13.019 4.288-29.617 11.395-48.661 23.185-12.084 7.473-25.167 16.829-38.931 28.541-7.627 6.474-15.459 13.673-23.459 21.673-11.311-.119-21.933-.689-31.887-1.603-18.003-1.652-33.835-4.45-47.634-7.859-21.736-5.371-38.425-12.246-50.587-18.545 5.181-24.218 17.188-47.276 36.007-66.095 51.972-51.972 136.239-51.979 188.21-.007 6.446 6.447 12.099 13.392 16.942 20.71z" fill="#c365af"/><path d="m421.547 271.323c-9.775 9.775-21.439 16.486-33.806 20.153-27.256 8.067-57.947 1.356-79.456-20.153-18.053-18.053-25.678-42.576-22.895-66.094 2.039-17.24 9.665-33.936 22.895-47.167 31.274-31.274 81.988-31.274 113.262 0 2.06 2.059 3.978 4.199 5.757 6.42 25.397 31.444 23.468 77.626-5.757 106.841z" fill="#ffd064"/><path d="m421.547 271.323c-9.775 9.775-21.439 16.486-33.806 20.153-6.52-46.233-22.825-76.784-22.825-76.784 22.463-22.463 43.611-38.608 62.387-50.211 25.398 31.445 23.469 77.627-5.756 106.842z" fill="#bbf49b"/><path d="m427.304 164.481c-12.086 7.474-25.166 16.828-38.929 28.541-7.625 6.47-15.461 13.673-23.458 21.67-11.312-.121-21.931-.683-31.887-1.597-18.003-1.658-33.836-4.451-47.64-7.866 2.039-17.24 9.665-33.936 22.895-47.167 31.274-31.274 81.988-31.274 113.262 0 2.06 2.058 3.979 4.198 5.757 6.419z" fill="#e490b7"/><circle cx="364.919" cy="214.692" fill="#5d5360" r="31.938"/><path d="m459.02 308.795c-19.62 19.62-43.832 31.827-69.169 36.629.502-7.766.633-15.331.462-22.634 18.053-6.339 34.85-16.657 50.181-30.511 45.379-41.039 47.057-73.519 52.713-113.021.05.161.091.332.141.502 12.076 44.526.623 94.074-34.328 129.035z" fill="#3ec3a4"/></g><g><path d="m434.851 336.68c9.749-5.521 20.994-14.036 29.537-22.652 37.588-37.639 50.683-92.443 34.174-143.053-1.284-3.938-5.519-6.091-9.456-4.805-3.938 1.285-6.089 5.519-4.804 9.456 14.759 45.244 3.038 94.239-30.589 127.865-14.195 14.038-32.659 26.176-55.922 32.424.369-13.949-.393-27.148-1.842-39.347 11.273-4.253 21.846-10.884 30.905-19.942 29.813-29.814 33.594-75.947 11.353-109.907 13.648-7.873 25.634-13.142 35.35-16.655 1.082-.373.447-.199 4.759-1.648 4.413-1.341 6.874-7.307 3.751-11.494-25.004-38.378-70.717-63.242-117.149-62.816-64.38-1.059-124.535 47.284-137.444 111.008-5.348 24.945-3.826 50.265 3.867 73.6-6.574-7.679-20.571-9.68-29.074-1.045l-16.239 16.239c-7.78 7.455-7.658 22.795 2.812 29.723h-.001l29.919 20.331-147.323 147.324c-5.087 5.088-5.087 13.365-.001 18.451l18.449 18.459c2.544 2.532 5.881 3.797 9.217 3.797 3.342 0 6.683-1.271 9.224-3.81l121.929-121.931c2.929-2.929 2.929-7.678 0-10.606-2.93-2.929-7.678-2.929-10.607 0l-120.549 120.55-15.675-15.684 139.315-139.315c.531.727 1.105 1.432 1.76 2.088l11.829 11.829c3.348 3.348 7.798 5.191 12.532 5.191 1.991 0 3.925-.344 5.755-.972l21.365 31.44c5.955 9.009 20.734 11.881 29.723 2.81l16.237-16.239c7.294-7.056 8.083-21.321-1.136-29.166 14.151 4.675 29.037 7.099 44.112 7.098 22.854.167 49.267-6.459 69.937-18.596zm-18.604-70.659c-6.676 6.676-14.347 11.757-22.533 15.283-2.191-12.58-5.003-23.77-7.836-33.202 2.478-1.561 4.805-3.401 6.926-5.523h-.001c12.153-11.854 15.501-32.847 5.841-48.346 9.092-7.276 14.367-11.444 26.776-19.653 18.695 28.176 15.639 66.628-9.173 91.441zm-172.302-85.045c13.49-51.952 65.803-93.175 120.973-91.867 37.655-.089 75.333 17.503 99.148 48.485-10.527 4.063-23.86 10.479-35.257 17.222-22.932-24.907-60.862-34.255-93.064-22.731-3.906 1.377-5.957 5.66-4.58 9.567 1.377 3.906 5.662 5.958 9.566 4.581 26.035-9.176 55.433-2.607 75.083 16.716-5.215 3.482-14.727 9.878-27.272 20.162-21.058-16.743-55.526-4.979-61.84 21.794-11.361-1.277-22.333-3.083-32.775-5.39 2.879-13.596 9.606-26.091 19.665-36.15 2.929-2.929 2.929-7.677 0-10.606-2.93-2.929-7.678-2.929-10.607 0-12.013 12.013-20.083 26.907-23.615 43.118-12.972-3.622-25-8.052-35.872-13.246.144-.554.295-1.105.447-1.655zm138.254 50.996c-.001 0-.001 0 0 0-4.616 4.616-10.753 7.158-17.28 7.158-12.019.206-24.614-10.518-24.438-24.438 0-6.527 2.542-12.665 7.157-17.28 8.354-8.643 24.842-9.967 34.56 0 8.645 8.354 9.967 24.842.001 34.56zm-89.865-17.458c10.711 2.303 21.917 4.116 33.497 5.391 2.362 21.001 24.032 37.917 46.01 33.611 2.718 9.193 5.394 20.078 7.432 32.298-23.025 4.61-47.869-1.981-65.681-19.794-13.128-12.975-21.467-32.315-21.258-51.506zm-95.066 76.712c-1.281-1.38-3.132-2.588-.634-6.709l16.239-16.239c1.147-.824 3.428-2.603 6.814 0l27.376 27.375-17.511 17.511zm49.666 53.281-11.83-11.829c-1.055-1.056-1.059-2.768-.017-3.831l22.586-22.586 15.678 15.678-22.567 22.568c-.856.109-.298 1.634-3.85 0zm64.398 22.231-16.238 16.239c-1.594.999-3.129 2.591-6.709-.634l-21.938-32.285 17.511-17.511 27.376 27.375c.823 1.148 2.603 3.428-.002 6.816zm-35.215-63.246c-27.976-27.975-40.929-66.91-35.626-105.742 11.324 5.153 23.68 9.564 36.931 13.152-1.245 23.767 8.314 48.697 25.562 65.726 17.075 17.075 39.505 25.613 61.935 25.613 5.495 0 10.99-.52 16.407-1.545 1.304 11.891 1.896 24.748 1.347 38.308-39.071 5.557-78.525-7.481-106.556-35.512z"/><path d="m405.058 392.078c-2.929-2.929-7.677-2.929-10.607 0l-6.28 6.28-6.28-6.28c-2.93-2.929-7.678-2.929-10.607 0s-2.929 7.678 0 10.606l6.28 6.28-6.28 6.28c-2.929 2.929-2.929 7.678 0 10.606 1.465 1.465 3.384 2.197 5.304 2.197 1.919 0 3.839-.732 5.304-2.197l6.28-6.28 6.28 6.28c1.465 1.464 3.385 2.197 5.304 2.197s3.839-.732 5.304-2.197c2.929-2.929 2.929-7.678 0-10.606l-6.28-6.28 6.28-6.28c2.927-2.928 2.927-7.677-.002-10.606z"/><path d="m332.981 450.008c-4.251 0-7.697 3.446-7.697 7.697s3.446 7.697 7.697 7.697 7.697-3.446 7.697-7.697-3.446-7.697-7.697-7.697z"/><path d="m468.268 401.268c-4.251 0-7.697 3.446-7.697 7.697s3.446 7.697 7.697 7.697 7.697-3.446 7.697-7.697-3.446-7.697-7.697-7.697z"/><path d="m44.588 359.158c24.271 17.84 58.133 21.534 86.373 8.855 27.783-12.008 46.681-37.066 25.847-60.372-10.717-10.964-30.999-12.027-42.505 0-16.233 16.843-45.78 4.169-47.9-19.614-.098-6.816 1.592-14.352 7.745-20.545l216.17-216.181c5.68-5.673 8.808-13.219 8.809-21.249 0-8.03-3.128-15.577-8.802-21.244-5.673-5.68-13.22-8.808-21.251-8.808-8.029 0-15.578 3.127-21.256 8.805l-216.175 216.174c-26.647 26.087-33.103 69.703-14.969 102.732 6.428 11.863 16.205 22.678 27.914 31.447zm-4.68-24.459c-.521-.853-1.236-.615-7.217-9.365l22.164-22.164c3.188 7.106 7.938 12.756 14.922 18.507l-21.37 21.371c-2.233-1.954-5.31-4.89-8.499-8.349zm2.829-99.6 16.712-16.703 21.282 21.283-16.706 16.713-21.29-21.29zm189.312-189.312v42.571l-23.639 23.638v-42.57zm-38.638 81.213-30.821 30.823v-42.576l30.821-30.821zm-45.822 3.247v42.576l-23.628 23.629v-42.578zm-38.628 81.206-17.621 17.622-21.29-21.29 38.91-38.91v42.578zm20.676 103.605c4.981-2.086 11.858-1.636 16.566 3.193 5.127 5.169 6.325 14.577-.004 21.287h.001c-4.933 4.566-7.983 7.687-16.995 12.615zm-15.431 10.942v32.09c-16.157 4.588-37.545 2.675-53.306-6.323l22.94-22.94c8.46 2.604 20.997 2.09 30.366-2.827zm144.219-306.589c2.844-2.845 6.626-4.411 10.648-4.411 4.021 0 7.799 1.565 10.644 4.414 2.843 2.84 4.409 6.618 4.409 10.638-.001 4.02-1.566 7.797-4.408 10.637-.002.001-.003.002-.004.003l-32.665 32.667v-42.572zm-225.274 227.32 22.07 22.071c-2.406 5.205-3.735 10.9-3.861 16.65l-25.714 25.714c-7.766-21.309-4.998-45.467 7.505-64.435z"/></g></g></svg>