<svg id="Capa_1" enable-background="new 0 0 512 512" height="512" viewBox="0 0 512 512" width="512" xmlns="http://www.w3.org/2000/svg"><g><g><path d="m364.885 254.849c-8.42-8.42-8.42-22.07 0-30.49l110.311-110.311c8.419-8.42 22.07-8.42 30.49 0 8.42 8.42 8.42 22.07 0 30.49l-110.31 110.311c-8.421 8.42-22.071 8.42-30.491 0z" fill="#ffe266"/><g><path d="m120.06 384.331c-23.432-23.431-23.432-61.422 0-84.853l274.293-274.295c23.432-23.432 61.422-23.432 84.853 0 23.432 23.431 23.432 61.422 0 84.853l-274.292 274.295c-23.432 23.432-61.422 23.432-84.854 0z" fill="#8bb6ef"/><path d="m479.207 25.183c-22.261-22.261-57.653-23.356-81.227-3.32 10.869.165 21.688 4.384 29.981 12.677l4.41 4.409c16.925 16.924 16.925 44.364 0 61.288l-237.255 237.257c-16.924 16.924-44.364 16.924-61.289 0l-4.41-4.409c-8.294-8.293-12.512-19.112-12.678-29.981-20.037 23.574-18.941 58.966 3.32 81.227 23.432 23.432 61.422 23.431 84.853 0l274.293-274.295c23.434-23.432 23.433-61.422.002-84.853z" fill="#8388ef"/><g><path d="m351.91 133.555c-2.582 0-5.168-.951-7.189-2.868-4.189-3.972-4.364-10.587-.392-14.775 6.983-7.364 29.07-28.567 32.689-32.121 4.118-4.046 10.734-3.987 14.78.132 4.045 4.118 3.986 10.735-.132 14.78-3.705 3.64-25.525 24.586-32.17 31.593-2.055 2.166-4.818 3.259-7.586 3.259z" fill="#fff"/></g><g><path d="m404.869 81.533c-2.706 0-5.409-1.044-7.456-3.126-4.046-4.117-3.988-10.735.13-14.78l4.21-4.137c4.115-4.046 10.732-3.99 14.78.126 4.047 4.115 3.991 10.732-.126 14.78l-4.214 4.141c-2.035 1.999-4.68 2.996-7.324 2.996z" fill="#fff"/></g><g><path d="m205.713 312.138c-1.478 0-2.961-.518-4.154-1.575-2.593-2.295-2.835-6.259-.54-8.852l7.927-8.958c2.296-2.595 6.259-2.834 8.852-.54 2.593 2.295 2.835 6.259.54 8.852l-7.927 8.958c-1.239 1.401-2.965 2.115-4.698 2.115z" fill="#6280cc"/></g><g><path d="m249.57 302.056c-1.478 0-2.961-.518-4.154-1.575-2.593-2.295-2.835-6.258-.54-8.852l7.928-8.958c2.295-2.594 6.26-2.834 8.852-.54 2.594 2.295 2.835 6.259.54 8.852l-7.928 8.958c-1.239 1.401-2.965 2.115-4.698 2.115z" fill="#6280cc"/></g></g><g><path d="m32.987 382.266-30.464 113.696c-.961 3.586 2.321 6.868 5.907 5.907l113.696-30.465c2.77-.742 4.557-3.428 4.171-6.27l-10.408-76.631-76.631-10.408c-2.843-.386-5.529 1.401-6.271 4.171z" fill="#ffe266"/><circle cx="62.531" cy="441.86" fill="#d0844b" r="15.399"/><g><path d="m6.271 504.391c-1.604 0-3.21-.612-4.434-1.836-2.45-2.449-2.45-6.42-.001-8.868l56.26-56.26c2.447-2.449 6.42-2.448 8.867-.001 2.45 2.449 2.45 6.42.001 8.868l-56.26 56.26c-1.223 1.225-2.829 1.837-4.433 1.837z" fill="#d0844b"/></g></g><path d="m137.667 434.803-68.079-68.079c-8.917-8.917-8.917-23.375 0-32.292 8.917-8.917 23.375-8.917 32.292 0l68.079 68.079c8.917 8.917 8.917 23.375 0 32.292-8.918 8.918-23.375 8.918-32.292 0z" fill="#ffe266"/></g><g><ellipse cx="273.611" cy="35.027" fill="#8bb6ef" rx="19.384" ry="19.384" transform="matrix(.23 -.973 .973 .23 176.658 293.271)"/><path d="m76.713 118.426c0 4.534-3.675 8.209-8.209 8.209s-8.209-3.675-8.209-8.209 3.675-8.209 8.209-8.209c4.533 0 8.209 3.675 8.209 8.209z" fill="#8bb6ef"/><g fill="#b2e7f1"><path d="m139.943 31.563 6.585 18.516c.282.793.84 1.421 1.544 1.738l16.451 7.412c2.324 1.047 2.324 4.75 0 5.797l-16.451 7.412c-.704.317-1.262.945-1.544 1.738l-6.585 18.516c-.93 2.616-4.22 2.616-5.151 0l-6.585-18.516c-.282-.793-.84-1.421-1.544-1.738l-16.451-7.412c-2.324-1.047-2.324-4.75 0-5.797l16.451-7.412c.704-.317 1.262-.946 1.544-1.738l6.585-18.516c.931-2.615 4.221-2.615 5.151 0z"/><path d="m54.417 192.371 9.048 24.961c.387 1.069 1.154 1.916 2.122 2.343l22.605 9.992c3.193 1.411 3.193 6.404 0 7.815l-22.605 9.992c-.968.428-1.735 1.275-2.122 2.343l-9.048 24.961c-1.278 3.527-5.799 3.527-7.077 0l-9.048-24.961c-.388-1.069-1.154-1.916-2.122-2.343l-22.605-9.992c-3.194-1.412-3.194-6.404 0-7.815l22.605-9.992c.968-.428 1.735-1.275 2.122-2.343l9.048-24.961c1.278-3.527 5.799-3.527 7.077 0z"/></g></g></g></svg>