<svg id="Capa_1" enable-background="new 0 0 512.021 512.021" height="512" viewBox="0 0 512.021 512.021" width="512" xmlns="http://www.w3.org/2000/svg"><g><g><g><path d="m482.839 403.654h-453.656c-11.799 0-21.364-9.565-21.364-21.364v-306.744c0-11.799 9.565-21.364 21.364-21.364h453.656c11.799 0 21.364 9.565 21.364 21.364v306.744c0 11.799-9.565 21.364-21.364 21.364z" fill="#f9f3f1"/></g><g><path d="m504.208 75.545v306.744c0 11.801-9.573 21.364-21.364 21.364h-19.985c11.791 0 21.364-9.563 21.364-21.364v-306.744c0-11.801-9.573-21.364-21.364-21.364h19.985c11.791 0 21.364 9.563 21.364 21.364z" fill="#efe2dd"/></g><g><path d="m375.778 504.527h-239.534v-21.432c0-12.339 10.003-22.342 22.342-22.342h194.851c12.339 0 22.342 10.003 22.342 22.342v21.432z" fill="#0067c5"/></g><g><path d="m375.783 483.094v21.434h-19.985v-21.434c0-12.341-10.003-22.343-22.343-22.343h19.985c12.34 0 22.343 10.002 22.343 22.343z" fill="#0055a3"/></g><g><path d="m192.9 403.654h126.221v57.1h-126.221z" fill="#82aee3"/></g><g><path d="m299.136 403.654h19.985v57.1h-19.985z" fill="#528fd8"/></g><g><path d="m482.839 403.654h-453.656c-11.799 0-21.364-9.565-21.364-21.364v-27.516h496.385v27.516c-.001 11.799-9.566 21.364-21.365 21.364z" fill="#0067c5"/></g><g><path d="m504.208 354.769v27.52c0 11.801-9.573 21.364-21.364 21.364h-19.985c11.791 0 21.364-9.563 21.364-21.364v-27.52z" fill="#0055a3"/></g></g><g><path d="m383.288 7.494h-254.554c-10.878 0-19.778 8.9-19.778 19.778v150.096c0 10.878 8.9 19.778 19.778 19.778h31.378c4.415 0 7.994 3.579 7.994 7.994v31.914c0 5.23 6.143 8.044 10.103 4.627l49.369-42.594c1.452-1.252 3.305-1.941 5.222-1.941h150.488c10.878 0 19.779-8.9 19.779-19.779v-150.094c-.001-10.879-8.901-19.779-19.779-19.779z" fill="#b0e7c9"/></g><g><path d="m212.813 197.15h19.985c-1.919 0-3.767.689-5.216 1.939l-49.373 42.589c-3.957 3.418-10.103.61-10.103-4.627v-3.897l39.491-34.065c1.449-1.249 3.297-1.939 5.216-1.939z" fill="#91deb6"/></g><g><path d="m403.062 27.276v150.089c0 10.882-8.893 19.785-19.775 19.785h-19.985c10.882 0 19.775-8.903 19.775-19.785v-150.089c0-10.882-8.893-19.785-19.775-19.785h19.985c10.882-.001 19.775 8.903 19.775 19.785z" fill="#91deb6"/></g><g><path d="m147.062 144.343c.534.092 17.736.152 25.61.108 4.139-.023 7.475-3.398 7.453-7.536-.024-4.139-3.375-7.47-7.536-7.453-5.835.033-12.111.056-16.762.058v-61.894c0-4.14-3.355-7.495-7.494-7.495s-7.494 3.355-7.494 7.495v69.331c-.002 3.649 2.626 6.768 6.223 7.386z"/><path d="m212.68 144.51c4.139 0 7.494-3.355 7.494-7.494v-69.39c0-4.14-3.355-7.495-7.494-7.495s-7.494 3.355-7.494 7.495v69.389c0 4.14 3.355 7.495 7.494 7.495z"/><path d="m334.72 144.273h28.971c4.14 0 7.495-3.355 7.495-7.495 0-4.139-3.355-7.494-7.495-7.494h-21.476v-19.389h19.34c4.14 0 7.494-3.355 7.494-7.495 0-4.139-3.355-7.494-7.494-7.494h-19.34v-19.389h21.476c4.14 0 7.495-3.355 7.495-7.495 0-4.139-3.355-7.494-7.495-7.494h-28.971c-4.14 0-7.494 3.355-7.494 7.494v68.756c-.001 4.14 3.354 7.495 7.494 7.495z"/><path d="m267.713 138.485c1.284 3.612 4.709 6.026 8.537 6.026.021 0 .043 0 .063-.001 3.853-.026 7.275-2.495 8.532-6.194l22.656-68.201c1.306-3.928-.822-8.17-4.749-9.474-3.926-1.305-8.17.821-9.474 4.749l-17.15 51.626-17.998-51.847c-1.357-3.911-5.629-5.983-9.538-4.623-3.91 1.357-5.979 5.627-4.623 9.537z"/><path d="m482.839 46.687h-24.24c-4.14 0-7.495 3.355-7.495 7.494s3.355 7.495 7.495 7.495h24.24c7.648 0 13.87 6.222 13.87 13.87v271.733h-481.396v-271.733c0-7.648 6.222-13.87 13.87-13.87h72.278v115.692c0 15.039 12.235 27.273 27.273 27.273h31.378c.276 0 .5.224.5.5v31.914c0 5.387 3.042 10.126 7.94 12.37 1.845.845 3.786 1.26 5.708 1.26 3.179 0 6.303-1.135 8.846-3.328l49.37-42.594c.09-.078.205-.121.325-.121h150.487c15.039 0 27.274-12.234 27.274-27.273v-115.693h14.328c4.14 0 7.495-3.355 7.495-7.495s-3.355-7.494-7.495-7.494h-14.328v-19.414c-.001-15.039-12.235-27.273-27.274-27.273h-254.554c-15.038 0-27.273 12.234-27.273 27.273v19.414h-72.278c-15.913 0-28.859 12.945-28.859 28.859v306.744c0 15.913 12.946 28.859 28.859 28.859h156.223v42.111h-26.82c-16.452 0-29.836 13.385-29.836 29.836v21.432c0 4.139 3.355 7.494 7.494 7.494h44.404c4.139 0 7.495-3.355 7.495-7.494 0-4.14-3.355-7.495-7.495-7.495h-36.909v-13.937c0-8.187 6.661-14.848 14.847-14.848h194.851c8.187 0 14.847 6.66 14.847 14.848v13.937h-153.135c-4.139 0-7.494 3.355-7.494 7.495 0 4.139 3.355 7.494 7.494 7.494h160.63c4.14 0 7.494-3.355 7.494-7.494v-21.432c0-16.452-13.385-29.836-29.836-29.836h-26.82v-42.111h156.223c15.913 0 28.859-12.946 28.859-28.859v-306.744c-.001-15.913-12.947-28.859-28.86-28.859zm-366.389-19.414c0-6.773 5.511-12.284 12.284-12.284h254.555c6.773 0 12.284 5.511 12.284 12.284v150.095c0 6.773-5.51 12.284-12.285 12.284h-150.488c-3.714 0-7.308 1.337-10.118 3.762l-47.082 40.62v-28.894c0-8.541-6.948-15.489-15.489-15.489h-31.378c-6.773 0-12.284-5.511-12.284-12.284v-150.094zm195.177 425.986h-111.232v-42.111h111.233v42.111zm185.082-77.679v6.71c0 7.648-6.222 13.87-13.87 13.87h-453.656c-7.648 0-13.87-6.222-13.87-13.87v-11.82-8.202h481.396z"/><path d="m451.952 274.205h-391.882c-4.139 0-7.494 3.355-7.494 7.494 0 4.14 3.355 7.495 7.494 7.495h391.882c4.139 0 7.494-3.355 7.494-7.495 0-4.139-3.355-7.494-7.494-7.494z"/><path d="m451.952 308.41h-391.882c-4.139 0-7.494 3.355-7.494 7.495 0 4.139 3.355 7.494 7.494 7.494h391.882c4.139 0 7.494-3.355 7.494-7.494 0-4.14-3.355-7.495-7.494-7.495z"/></g></g></svg>